<svg xmlns="http://www.w3.org/2000/svg" width="135" height="72" fill="none"><path fill="#9C9C9C" d="M9.235 16.688v-1.694h6.72v1.694h-6.72Zm8.394 0v-1.694h6.72v1.694h-6.72Zm8.395 0v-1.694h6.72v1.694h-6.72Zm8.394 0v-1.694h6.72v1.694h-6.72Zm16.79 0v-1.694h6.72v1.694h-6.72Zm8.394 0v-1.694h6.72v1.694h-6.72Zm8.394 0v-1.694h6.72v1.694h-6.72Zm8.395 0v-1.694h6.72v1.694h-6.72Zm16.789 0v-1.694h6.72v1.694h-6.72Zm8.394 0v-1.694h6.72v1.694h-6.72Zm8.395 0v-1.694h6.72v1.694h-6.72Zm8.394 0v-1.694h6.72v1.694h-6.72ZM3.318 33.932V21.36h1.764v12.572H3.318Zm8.395 0V21.36h1.764v12.572h-1.764ZM17.852 32v-9.772h3.78c.476 0 .9.075 1.274.224.373.14.686.345.938.616.261.27.457.597.588.98.13.383.196.812.196 1.288s-.065.905-.196 1.288a2.598 2.598 0 0 1-1.526 1.61 3.61 3.61 0 0 1-1.274.21h-1.666V32h-2.114Zm2.114-5.25H21.1c.495 0 .835-.093 1.022-.28.196-.187.294-.495.294-.924v-.42c0-.43-.098-.737-.294-.924-.187-.187-.527-.28-1.022-.28h-1.134v2.828Zm16.93 7.182V21.36h1.763v12.572h-1.764Zm8.394 0V21.36h1.764v12.572H45.29Zm8.394 0V21.36h1.764v12.572h-1.764Zm9.277-1.764c-1.307 0-2.273-.443-2.898-1.33-.616-.887-.924-2.128-.924-3.724s.308-2.837.924-3.724c.625-.887 1.591-1.33 2.898-1.33 1.306 0 2.268.443 2.884 1.33.625.887.938 2.128.938 3.724s-.313 2.837-.938 3.724c-.616.887-1.578 1.33-2.884 1.33Zm0-1.694c.597 0 1.008-.22 1.232-.658.233-.448.35-1.069.35-1.862V26.26c0-.784-.117-1.395-.35-1.834-.224-.448-.635-.672-1.232-.672-.598 0-1.013.224-1.246.672-.224.439-.336 1.05-.336 1.834v1.708c0 .784.112 1.4.336 1.848.233.439.648.658 1.246.658Zm15.907 3.458V21.36h1.764v12.572h-1.764Zm8.394 0V21.36h1.764v12.572h-1.764Zm8.395 0V21.36h1.764v12.572h-1.764ZM106.824 32l-.616-2.352h-2.674L102.932 32h-2.128l2.646-9.772h2.968L109.064 32h-2.24Zm-1.89-7.742h-.112l-.952 3.696h2.016l-.952-3.696Zm15.907 9.674V21.36h1.764v12.572h-1.764Zm8.395 0V21.36H131v12.572h-1.764Zm-125.918 18V39.36h1.764v12.572H3.318Zm8.395 0V39.36h1.764v12.572h-1.764Zm5.916.756v-1.694h6.72v1.694h-6.72Zm8.395 0v-1.694h6.72v1.694h-6.72Zm10.872-.756V39.36h1.764v12.572h-1.764Zm8.395 0V39.36h1.764v12.572H45.29Zm8.394 0V39.36h1.764v12.572h-1.764Zm5.917.756v-1.694h6.72v1.694h-6.72Zm8.394 0v-1.694h6.72v1.694h-6.72Zm10.873-.756V39.36h1.764v12.572h-1.764Zm8.394 0V39.36h1.764v12.572h-1.764Zm8.395 0V39.36h1.764v12.572h-1.764Zm5.916.756v-1.694h6.72v1.694h-6.72Zm8.395 0v-1.694h6.72v1.694h-6.72Zm10.872-.756V39.36h1.764v12.572h-1.764Zm8.395 0V39.36H131v12.572h-1.764Zm-125.918 18V57.36h1.764v12.572H3.318Zm6.099 0L13.91 57.36h1.862l-4.495 12.572h-1.86Zm8.212.756v-1.694h6.72v1.694h-6.72Zm8.395 0v-1.694h6.72v1.694h-6.72Zm13.07-.756L34.6 57.36h1.862l4.494 12.572h-1.862Zm6.197 0V57.36h1.764v12.572H45.29Zm6.098 0 4.494-12.572h1.862l-4.494 12.572H51.39Zm8.213.756v-1.694h6.72v1.694h-6.72Zm8.394 0v-1.694h6.72v1.694h-6.72Zm13.07-.756L76.574 57.36h1.862l4.494 12.572h-1.862Zm6.197 0V57.36h1.764v12.572h-1.764Zm6.099 0 4.494-12.572h1.862l-4.494 12.572h-1.862Zm8.212.756v-1.694h6.72v1.694h-6.72Zm8.395 0v-1.694h6.72v1.694h-6.72Zm13.07-.756-4.494-12.572h1.862l4.494 12.572h-1.862Zm6.197 0V57.36H131v12.572h-1.764Z"/></svg>