<svg xmlns="http://www.w3.org/2000/svg" viewBox="0 0 1431.3 317.6"><path d="M387.5 204.8v-97.7h37.8c4.8 0 9 .7 12.7 2.2 3.7 1.4 6.9 3.5 9.4 6.2 2.6 2.7 4.5 6 5.8 9.8 1.3 3.8 2 8.1 2 12.9s-.7 9.1-2 12.9c-1.3 3.8-3.2 7.1-5.8 9.8-2.6 2.7-5.7 4.8-9.4 6.2-3.7 1.4-8 2.2-12.7 2.2h-16.7v35.6h-21.1Zm21.1-52.5h11.3c4.9 0 8.4-.9 10.3-2.8 1.9-1.9 2.9-4.9 2.9-9.2v-4.2c0-4.3-1-7.4-2.9-9.2-1.9-1.9-5.3-2.8-10.3-2.8h-11.3v28.3Zm62.6 36.2h16.7v-39.8h-16.7v-16.2h37.4v20.4h1c.7-2.6 1.6-5.2 2.7-7.6 1.2-2.5 2.7-4.7 4.5-6.6 1.8-1.9 4-3.4 6.6-4.5 2.6-1.1 5.7-1.7 9.2-1.7h6.9v19h-15.4c-5.1 0-9 1.5-11.6 4.5-2.6 3-3.9 6.7-3.9 11.1v21.3h23.8v16.2h-61.2v-16.2Zm86.8 0h23v-39.8h-23v-16.2h43.7v56H623v16.2h-65v-16.2Zm33.3-65.2c-4.7 0-7.9-1-9.7-2.9-1.8-1.9-2.7-4.2-2.7-6.9v-4.1c0-2.8.9-5.1 2.7-7 1.8-1.9 5.1-2.8 9.7-2.8s7.9.9 9.7 2.8c1.8 1.9 2.7 4.2 2.7 7v4.1c0 2.7-.9 5-2.7 6.9-1.8 1.9-5.1 2.9-9.7 2.9Zm67.2 81.5-25.9-72.2h21.8l9.4 30.9 6.9 24.1h1.1l6.9-24.1 9.4-30.9h21l-25.9 72.2h-24.6Zm122.5 0c-4.3 0-7.7-1.1-10.4-3.3-2.6-2.2-4.2-5.3-4.6-9.5h-.7c-1.3 4.8-3.9 8.4-7.8 10.8-3.9 2.4-8.6 3.6-14.2 3.6s-12.6-1.9-16.9-5.7c-4.2-3.8-6.4-9.1-6.4-15.9s2.8-13.2 8.3-16.8c5.5-3.6 13.6-5.5 24.2-5.5h11.6v-3.6c0-4.3-1-7.5-3-9.7-2-2.2-5.4-3.3-10.2-3.3s-7.9.8-10.6 2.5c-2.7 1.7-5 3.9-7 6.6L722 144.9c2.4-4.1 6.2-7.5 11.4-10.1 5.2-2.7 11.8-4 20-4s17.6 2.3 23.2 6.8c5.6 4.5 8.3 11.4 8.3 20.5v31.6h8v15H781Zm-29.8-11.9c3.6 0 6.7-.9 9.2-2.7 2.5-1.8 3.8-4.3 3.8-7.7v-8.7h-11.1c-8.5 0-12.7 2.8-12.7 8.5v2.8c0 2.5 1 4.4 2.9 5.7 2 1.3 4.6 2 7.8 2Zm90.6 13.6c-5.7 0-10.8-.9-15.3-2.6-4.5-1.7-8.4-4.2-11.5-7.5-3.1-3.3-5.5-7.2-7.2-11.9-1.7-4.7-2.5-9.9-2.5-15.8s.8-11.2 2.5-15.8c1.7-4.7 4.1-8.6 7.2-11.9 3.1-3.3 7-5.8 11.5-7.5 4.5-1.7 9.6-2.6 15.2-2.6 7.9 0 14.3 1.6 19.1 4.8 4.8 3.2 8.5 7.5 11 12.8l-16 8.7c-1.3-2.8-3-5.1-5.1-7-2.1-1.9-5.1-2.8-9-2.8s-8.4 1.4-11 4.1c-2.6 2.8-3.9 6.5-3.9 11.3v11.8c0 4.8 1.3 8.5 3.9 11.3 2.6 2.8 6.3 4.1 11.3 4.1s7.2-.9 9.5-2.8 4.2-4.3 5.8-7.3l15.7 9c-2.6 5.3-6.4 9.6-11.4 12.8-5 3.2-11.5 4.8-19.7 4.8Zm99.2-74h21.1l-34 83.9c-2.1 5.3-5 9.4-8.5 12.2-3.5 2.8-8.4 4.2-14.6 4.2h-14.3v-16.2h17.4l4.5-12.2-29.1-71.8h22.3l10.5 30.4 6.6 21h1.1l6.3-21 10.8-30.4Zm79.3 72.3v-97.7h37.8c4.8 0 9 .7 12.7 2.2 3.7 1.4 6.9 3.5 9.5 6.2 2.6 2.7 4.5 6 5.8 9.8 1.3 3.8 2 8.1 2 12.9s-.7 9.1-2 12.9c-1.3 3.8-3.2 7.1-5.8 9.8-2.6 2.7-5.7 4.8-9.5 6.2-3.7 1.4-8 2.2-12.7 2.2h-16.7v35.6h-21.1Zm21.1-52.5h11.3c4.9 0 8.4-.9 10.3-2.8 1.9-1.9 2.9-4.9 2.9-9.2v-4.2c0-4.3-1-7.4-2.9-9.2-1.9-1.9-5.3-2.8-10.3-2.8h-11.3v28.3Zm94.2 54.2c-5.6 0-10.6-.9-15.1-2.6-4.5-1.7-8.3-4.2-11.4-7.5-3.1-3.3-5.5-7.2-7.2-11.9-1.7-4.7-2.5-9.9-2.5-15.8s.8-11.2 2.5-15.8c1.7-4.7 4.1-8.6 7.2-11.9 3.1-3.3 6.9-5.8 11.4-7.5 4.5-1.7 9.5-2.6 15.1-2.6s10.6.9 15.1 2.6c4.5 1.7 8.3 4.2 11.4 7.5 3.1 3.3 5.5 7.2 7.2 11.9 1.7 4.7 2.5 9.9 2.5 15.8s-.8 11.2-2.5 15.8c-1.7 4.7-4.1 8.6-7.2 11.9-3.1 3.3-6.9 5.8-11.4 7.5-4.5 1.7-9.5 2.6-15.1 2.6Zm0-15.4c4.7 0 8.3-1.4 10.9-4.3 2.6-2.9 3.9-7 3.9-12.3V163c0-5.3-1.3-9.4-3.9-12.3-2.6-2.9-6.3-4.3-10.9-4.3s-8.3 1.4-10.9 4.3c-2.6 2.9-3.9 7-3.9 12.3v11.5c0 5.3 1.3 9.4 3.9 12.3 2.6 2.9 6.3 4.3 10.9 4.3Zm84 15.4c-5.6 0-10.6-.9-15.1-2.6-4.5-1.7-8.3-4.2-11.4-7.5-3.1-3.3-5.5-7.2-7.2-11.9-1.7-4.7-2.5-9.9-2.5-15.8s.8-11.2 2.5-15.8c1.7-4.7 4.1-8.6 7.2-11.9 3.1-3.3 6.9-5.8 11.4-7.5 4.5-1.7 9.5-2.6 15.1-2.6s10.6.9 15.1 2.6c4.5 1.7 8.3 4.2 11.4 7.5 3.1 3.3 5.5 7.2 7.2 11.9 1.7 4.7 2.5 9.9 2.5 15.8s-.8 11.2-2.5 15.8c-1.7 4.7-4.1 8.6-7.2 11.9-3.1 3.3-6.9 5.8-11.4 7.5-4.5 1.7-9.5 2.6-15.1 2.6Zm0-15.4c4.7 0 8.3-1.4 10.9-4.3 2.6-2.9 3.9-7 3.9-12.3V163c0-5.3-1.3-9.4-3.9-12.3-2.6-2.9-6.3-4.3-10.9-4.3s-8.3 1.4-10.9 4.3c-2.6 2.9-3.9 7-3.9 12.3v11.5c0 5.3 1.3 9.4 3.9 12.3 2.6 2.9 6.3 4.3 10.9 4.3Zm51.6-2.6h22.1v-71.1h-22.1v-16.2h42.8v87.4h22.1v16.2h-65v-16.2Zm115.6 18c-8 0-15-1.2-20.9-3.6-5.9-2.4-10.4-5.7-13.4-9.9l11.6-10.8c2.8 3.1 6.1 5.5 9.9 7.2 3.8 1.7 8.1 2.6 13 2.6s7.3-.6 9.7-1.9c2.3-1.3 3.5-3.2 3.5-5.8s-.8-3.5-2.4-4.3c-1.6-.8-3.8-1.4-6.6-1.9l-11.6-1.8c-3.3-.5-6.3-1.2-9.1-2.2-2.8-1-5.2-2.3-7.3-4-2.1-1.7-3.7-3.7-4.9-6.2-1.2-2.4-1.8-5.4-1.8-8.8 0-7.6 2.9-13.5 8.7-17.8 5.8-4.3 13.9-6.4 24.4-6.4s13.1 1 18.1 2.9c5 1.9 9 4.6 12 8.2l-10.4 11.8c-2.1-2.3-4.9-4.3-8.3-5.9-3.4-1.6-7.4-2.4-12.2-2.4-8 0-12 2.4-12 7.3s.8 3.6 2.4 4.4c1.6.8 3.8 1.4 6.6 1.9l11.5 1.8c3.3.5 6.3 1.2 9.1 2.2 2.8 1 5.2 2.3 7.3 4 2.1 1.7 3.8 3.7 5 6.2 1.2 2.4 1.8 5.4 1.8 8.8 0 7.6-2.9 13.5-8.8 17.9-5.8 4.4-14.1 6.6-24.8 6.6ZM307.1 128.1c-2-9.8-5-19.5-8.9-28.7-3.8-9.1-8.6-17.8-14.1-26-5.5-8.1-11.7-15.7-18.7-22.6-6.9-6.9-14.5-13.2-22.6-18.7-8.2-5.5-16.9-10.3-26-14.1-9.2-3.9-18.9-6.9-28.7-8.9C178 7 167.7 6 157.3 6s-20.7 1-30.8 3.1c-9.8 2-19.5 5-28.7 8.9-9.1 3.8-17.8 8.6-26 14.1-8.1 5.5-15.7 11.7-22.6 18.7-6.9 6.9-13.2 14.5-18.7 22.6-5.5 8.2-10.3 16.9-14.1 26-3.9 9.2-6.9 18.9-8.9 28.7-2.1 10.1-3.1 20.4-3.1 30.8s1 20.7 3.1 30.8c2 9.8 5 19.5 8.9 28.7 3.8 9.1 8.6 17.8 14.1 26 5.5 8.1 11.7 15.7 18.7 22.6 6.9 6.9 14.5 13.2 22.6 18.7 8.2 5.5 16.9 10.3 26 14.1 9.2 3.9 18.9 6.9 28.7 8.9 10.1 2.1 20.4 3.1 30.8 3.1s20.7-1 30.8-3.1c9.8-2 19.5-5 28.7-8.9 9.1-3.8 17.8-8.6 26-14.1 8.1-5.5 15.7-11.7 22.6-18.7 6.9-6.9 13.2-14.5 18.7-22.6 5.5-8.2 10.3-16.9 14.1-26 3.9-9.2 6.9-18.9 8.9-28.7 2.1-10.1 3.1-20.4 3.1-30.8s-1-20.7-3.1-30.8ZM21.9 158.9c0-18.3 3.6-36 10.6-52.7 3.4-8 7.6-15.8 12.5-23 4.8-7.2 10.4-13.9 16.5-20.1 6.1-6.1 12.9-11.7 20.1-16.5 7.2-4.9 15-9.1 23-12.5 16.7-7.1 34.4-10.6 52.7-10.6s36 3.6 52.7 10.6c8 3.4 15.8 7.6 23 12.5 7.2 4.8 13.9 10.4 20.1 16.5 6.1 6.1 11.7 12.9 16.5 20.1 4.9 7.2 9.1 15 12.5 23 5.1 11.9 8.3 24.4 9.8 37.3h-50.6l.4-30.1c0-13.6-4.2-26.3-11.8-35.9-3.8-4.9-8.4-8.8-13.4-11.5-5.4-2.9-11.2-4.4-17.2-4.4s-11.8 1.5-17.2 4.4c-5.1 2.7-9.6 6.6-13.4 11.5-7.6 9.7-11.8 22.4-11.8 35.8v30.2h-7l.4-30.1c0-13.6-4.2-26.3-11.8-35.9-3.8-4.9-8.4-8.8-13.4-11.5-5.4-2.9-11.2-4.4-17.2-4.4S96.1 63.1 90.7 66c-5.1 2.7-9.6 6.6-13.4 11.5-7.6 9.7-11.8 22.4-11.8 35.8v129.5H50.9c-2.1-2.6-4.2-5.3-6.1-8.2-4.9-7.2-9.1-15-12.5-23-7.1-16.7-10.6-34.4-10.6-52.7Zm202.3-15.4h-50v-30.2c0-4.9.7-9.6 2.2-14 1.4-4.2 3.3-7.9 5.8-11 4.7-6 10.8-9.3 17.2-9.3s12.4 3.3 17.2 9.3c2.5 3.2 4.4 6.9 5.8 11 1.5 4.4 2.2 9.1 2.2 13.9l-.4 30.3Zm-91.3 0h-50v-30.2c0-4.9.7-9.6 2.2-14 1.4-4.2 3.3-7.9 5.8-11 4.7-6 10.8-9.3 17.2-9.3s12.4 3.3 17.2 9.3c2.5 3.2 4.4 6.9 5.8 11 1.5 4.4 2.2 9.1 2.2 13.9l-.4 30.3Zm-50 99.2v-81.8H157v81.3l-74.1.6Zm199.3-31.1c-3.4 8-7.6 15.8-12.5 23-1.5 2.3-3.1 4.5-4.8 6.6l-90.7.7v-81.2h118.6c-.2 17.6-3.8 34.7-10.6 50.8Z"/></svg>